HIERARCHY
ROOT root
{
	OFFSET	0	13.1	24.9
	CHANNELS 6  Xposition Yposition Zposition Xrotation Yrotation Zrotation
	JOINT spine_1
	{
		OFFSET	0	9.99999	0
		CHANNELS 3  Xrotation Yrotation Zrotation
		JOINT spine_2
		{
			OFFSET	0	112	-10
			CHANNELS 3  Xrotation Yrotation Zrotation
			JOINT spine_3
			{
				OFFSET	0	206.5	19.3
				CHANNELS 3  Xrotation Yrotation Zrotation
				JOINT spine_4
				{
					OFFSET	0	110.4	14.6
					CHANNELS 3  Xrotation Yrotation Zrotation
					JOINT neck_1
					{
						OFFSET	0	71.8	-50.3
						CHANNELS 3  Xrotation Yrotation Zrotation
						JOINT neck_2
						{
							OFFSET	0	86.2	-25.8
							CHANNELS 3  Xrotation Yrotation Zrotation
							JOINT head_ee
							{
								OFFSET	0	179.8	-8.7
								CHANNELS 3  Xrotation Yrotation Zrotation
								End Site
								{
									OFFSET	1	0	0
								}
							}
						}
					}
					JOINT left_clavicle
					{
						OFFSET	-43.2	22.4	-70.8
						CHANNELS 3  Xrotation Yrotation Zrotation
						JOINT left_shoulder
						{
							OFFSET	-93.9	-5.79999	48.7
							CHANNELS 3  Xrotation Yrotation Zrotation
							JOINT left_elbow
							{
								OFFSET	-291.4	-30.8	15.2
								CHANNELS 3  Xrotation Yrotation Zrotation
								JOINT left_lowarm_twist
								{
									OFFSET	-110.7	-3.89999	13.6
									CHANNELS 3  Xrotation Yrotation Zrotation
									JOINT left_hand
									{
										OFFSET	-110.7	-3.89999	13.6
										CHANNELS 3  Xrotation Yrotation Zrotation
										JOINT left_ee
										{
											OFFSET	-80.8	-5.10001	12.1
											CHANNELS 3  Xrotation Yrotation Zrotation
											End Site
											{
												OFFSET	1	0	0
											}
										}
									}
								}
							}
						}
					}
					JOINT right_clavicle
					{
						OFFSET	43.2	22.4	-70.8
						CHANNELS 3  Xrotation Yrotation Zrotation
						JOINT right_shoulder
						{
							OFFSET	93.9	-5.79999	48.7
							CHANNELS 3  Xrotation Yrotation Zrotation
							JOINT right_elbow
							{
								OFFSET	291.4	-30.8	15.2
								CHANNELS 3  Xrotation Yrotation Zrotation
								JOINT right_lowarm_twist
								{
									OFFSET	110.7	-3.89999	13.6
									CHANNELS 3  Xrotation Yrotation Zrotation
									JOINT right_hand
									{
										OFFSET	110.7	-3.89999	13.6
										CHANNELS 3  Xrotation Yrotation Zrotation
										JOINT right_ee
										{
											OFFSET	80.8	-5.10001	12.1
											CHANNELS 3  Xrotation Yrotation Zrotation
											End Site
											{
												OFFSET	1	0	0
											}
										}
									}
								}
							}
						}
					}
				}
			}
		}
	}
	JOINT left_hip
	{
		OFFSET	-82.8	-127.5	0.300001
		CHANNELS 3  Xrotation Yrotation Zrotation
		JOINT left_knee
		{
			OFFSET	-28.2	-396.7	2.2
			CHANNELS 3  Xrotation Yrotation Zrotation
			JOINT left_ankle
			{
				OFFSET	-11.7	-411.3	35.4
				CHANNELS 3  Xrotation Yrotation Zrotation
				JOINT left_toes
				{
					OFFSET	0	-60	-88.6
					CHANNELS 3  Xrotation Yrotation Zrotation
					JOINT left_foot_ee
					{
						OFFSET	-22.5	-16.5	-42.2
						CHANNELS 3  Xrotation Yrotation Zrotation
						End Site
						{
							OFFSET	1	0	0
						}
					}
				}
			}
		}
	}
	JOINT right_hip
	{
		OFFSET	82.8	-127.5	0.300001
		CHANNELS 3  Xrotation Yrotation Zrotation
		JOINT right_knee
		{
			OFFSET	28.2	-396.7	2.2
			CHANNELS 3  Xrotation Yrotation Zrotation
			JOINT right_ankle
			{
				OFFSET	11.7	-411.3	35.4
				CHANNELS 3  Xrotation Yrotation Zrotation
				JOINT right_toes
				{
					OFFSET	0	-60	-88.6
					CHANNELS 3  Xrotation Yrotation Zrotation
					JOINT right_foot_ee
					{
						OFFSET	22.5	-16.5	-42.2
						CHANNELS 3  Xrotation Yrotation Zrotation
						End Site
						{
							OFFSET	1	0	0
						}
					}
				}
			}
		}
	}
}
MOTION
Frames: 9
Frame Time: 0.02
4114.32 708.347 -213.657 -10.504 34.4285 4.01982 3.18805 0.0811345 -0.546766 3.1882 0.115762 -0.540496 3.18705 0.198406 -0.515919 3.18669 0.114438 -0.540778 -14.0677 14.3051 4.47722 -14.4994 24.6068 8.89825 -0.0 0.0 -0.0 5.28776 11.9969 10.3343 -11.2533 -25.0767 70.2604 0.748994 -20.3563 0.134472 24.8471 0.196673 -3.14314 0.421434 2.13811 3.69783 -0.0 0.0 -0.0 6.08882 -8.03055 -11.795 -11.9549 19.8101 -66.1718 0.8225 22.1679 -0.161132 -25.6787 1.57221 -2.85441 -2.31731 -7.84777 11.8396 0.0 0.0 0.0 32.0855 60.5378 -30.3395 -16.1681 0.321584 2.45211 13.4997 -17.9279 -2.09974 -10.6555 0.0 0.0 -0.0 0.0 -0.0 8.38832 34.0828 5.83403 1.40102 0.0602231 0.206549 41.4565 -23.9308 5.27064 4.18176 -0.0 -0.0 0.0 0.0 0.0 
4122.43 707.09 -220.258 -10.8763 34.397 3.99861 3.23418 0.158281 -0.322808 3.23422 0.178501 -0.312082 3.23322 0.224634 -0.280709 3.23316 0.177482 -0.312663 -13.9963 13.8899 5.55972 -14.3293 23.1461 9.73765 -0.0 0.0 -0.0 4.83637 7.91301 9.53471 -10.3151 -26.0039 70.9881 0.776222 -21.0326 0.144095 26.4022 0.163469 -3.339 0.442513 2.34184 3.92158 -0.0 0.0 -0.0 6.39976 -8.13521 -12.3576 -12.7342 19.4411 -67.1536 0.871314 23.3459 -0.180015 -25.2527 1.53607 -2.8135 -2.48585 -8.12748 12.8188 0.0 0.0 0.0 31.7259 60.5323 -29.5583 -14.5856 0.320832 2.20931 15.4661 -18.6606 -2.3986 -10.6117 0.0 0.0 -0.0 0.0 -0.0 8.36834 34.9148 4.72963 2.66377 0.118824 0.39143 42.2969 -25.5406 5.40191 5.29022 -0.0 -0.0 0.0 0.0 0.0 
4127.89 705.128 -228.904 -11.1868 34.2945 3.7652 3.39241 0.116226 -0.158518 3.39242 0.126078 -0.150801 3.39208 0.14753 -0.129891 3.39208 0.125164 -0.15156 -14.2176 14.1776 5.71181 -14.5789 23.6417 10.0285 -0.0 0.0 -0.0 4.36642 7.46385 8.68116 -9.54284 -26.6215 71.5768 0.832302 -22.4061 0.164849 26.9571 0.150334 -3.40868 0.755678 1.32716 5.59544 -0.0 0.0 -0.0 6.51144 -7.51072 -12.5747 -14.0563 20.2049 -68.1113 0.908128 24.2208 -0.194862 -24.6772 1.48772 -2.7578 -2.29355 -7.00022 12.1016 0.0 0.0 0.0 32.0662 60.3724 -29.8442 -14.3452 0.320131 2.17244 15.3601 -18.8666 -2.38758 -10.9769 0.0 0.0 -0.0 0.0 -0.0 8.75475 33.2939 4.35213 2.90299 0.130385 0.426311 42.0971 -24.6049 5.35134 5.85907 -0.0 -0.0 0.0 0.0 0.0 
4118.55 701.986 -231.258 -11.545 34.7899 4.43585 3.54203 -0.0109192 -0.470724 3.54215 0.019056 -0.470465 3.54194 0.0891203 -0.46234 3.54164 0.0149848 -0.470612 -13.7431 14.1148 4.57585 -14.1303 24.1354 8.84676 -0.0 0.0 -0.0 3.9976 9.47914 8.07758 -9.19691 -30.8029 72.9914 0.9676 -25.6089 0.219917 25.985 0.172899 -3.28654 1.60744 0.174918 10.8722 -0.0 0.0 -0.0 5.65429 -5.50085 -11.0102 -15.6293 20.2683 -67.3392 0.99403 26.2157 -0.231467 -21.5295 1.2334 -2.44485 -1.77779 -5.5132 9.38636 0.0 0.0 0.0 34.1618 60.0768 -32.1105 -16.5694 0.320709 2.51368 15.2137 -17.3573 -2.33684 -11.3429 0.0 0.0 -0.0 0.0 -0.0 10.1234 30.5103 3.74555 -0.0613972 -0.00252322 -0.00908411 40.4413 -20.024 5.0697 8.37114 -0.0 -0.0 0.0 0.0 0.0 
4123.11 702.602 -236.192 -11.5225 34.2828 4.40416 3.55864 -0.0820006 -0.479771 3.55876 -0.0513056 -0.484017 3.55914 0.0214242 -0.486257 3.55881 -0.0556389 -0.483538 -13.458 14.7933 3.80528 -13.9164 25.8632 8.29806 -0.0 0.0 -0.0 3.58673 8.72699 7.33049 -8.98302 -30.5873 73.4582 1.03498 -27.1435 0.249854 27.157 0.145437 -3.43374 1.59812 -0.443372 10.5601 -0.0 0.0 -0.0 5.85068 -5.21986 -11.3755 -15.6414 19.6073 -67.3787 1.04244 27.3109 -0.253268 -20.8881 1.18372 -2.37941 -1.71015 -6.55769 8.44765 0.0 0.0 0.0 32.614 60.0804 -30.7406 -14.4037 0.320315 2.18141 14.6681 -17.321 -2.2581 -10.9275 0.0 0.0 -0.0 0.0 -0.0 11.4679 30.9065 2.22713 -1.53565 -0.0601773 -0.227978 41.9292 -23.5587 5.30218 9.68602 -0.0 -0.0 0.0 0.0 0.0 
4148.93 699.691 -244.157 -3.68812 36.2283 4.2412 0.00510499 -0.713306 -0.675778 0.00511008 -0.66886 -0.719796 0.0137676 -0.502899 -0.844137 0.013327 -0.6299 -0.754126 -6.89023 13.6392 2.46897 -6.87804 23.5832 5.23261 -0.0 0.0 -0.0 0.966059 15.6144 3.36698 9.43355 -42.6078 78.4287 0.71692 -19.552 0.123526 25.3161 0.18722 -3.2023 2.92521 -3.33687 18.5906 -0.0 0.0 -0.0 7.81617 -0.397384 -15.2126 -2.91084 6.1745 -67.7313 0.530443 14.7227 -0.0685292 39.7234 0.334956 4.96311 2.20892 6.53704 -12.2247 0.0 0.0 0.0 15.2891 19.7348 -20.7054 -22.158 0.263763 3.36894 34.0176 7.51585 -4.30423 -39.5909 0.0 0.0 -0.0 0.0 -0.0 6.57247 26.4453 -3.79786 2.71566 0.121319 0.399 37.5697 18.92 5.08375 10.2495 -0.0 -0.0 0.0 0.0 0.0 
4146.68 699.373 -244.209 -2.47563 36.288 3.07619 -0.385062 -0.329514 -0.655268 -0.384869 -0.287151 -0.674907 -0.38127 -0.134107 -0.721088 -0.381911 -0.246304 -0.690861 -6.07754 12.6266 -0.21873 -6.01777 23.5325 2.17851 -0.0 0.0 -0.0 1.19882 16.1636 3.78194 12.9564 -42.4368 80.4465 0.670209 -18.3663 0.108349 25.439 0.184662 -3.21779 2.64726 -2.82064 16.8419 -0.0 0.0 -0.0 7.52016 6.26464 -14.5937 -3.64841 8.27948 -67.633 0.476447 13.28 -0.0554641 38.6289 0.279877 4.83443 2.17937 7.08565 -11.7856 0.0 0.0 0.0 15.3866 16.8239 -19.2712 -26.3184 0.167381 3.99998 34.0193 5.73654 -4.30222 -39.0014 0.0 0.0 -0.0 0.0 -0.0 4.9337 25.974 -3.3544 3.04641 0.137386 0.447199 36.8457 18.1031 4.98264 9.97267 -0.0 -0.0 0.0 0.0 0.0 
4160.43 700.226 -250.451 -1.97552 37.9969 3.54948 -0.845894 -0.474308 -0.545587 -0.845836 -0.43863 -0.574662 -0.841234 -0.29844 -0.658456 -0.841617 -0.398683 -0.603062 -5.71146 12.0186 -0.971628 -5.62535 22.917 1.22852 -0.0 0.0 -0.0 0.610593 15.2089 2.76323 15.3095 -42.1948 80.8776 0.701119 -19.1529 0.11829 25.2298 0.188996 -3.19141 2.47156 -2.55606 15.7202 -0.0 0.0 -0.0 8.46278 12.2182 -16.4319 -2.19468 4.10903 -66.8988 0.426736 11.9364 -0.0446124 42.0772 0.461691 5.23618 1.61508 5.05202 -8.77922 0.0 0.0 0.0 17.2164 12.9884 -20.3612 -26.9274 0.149436 4.09172 33.685 4.14794 -4.27059 -39.4775 0.0 0.0 -0.0 0.0 -0.0 4.74195 26.0814 -5.37068 3.91898 0.181109 0.573913 38.3809 19.6938 5.19196 9.26484 -0.0 -0.0 0.0 0.0 0.0 
4152.85 697.429 -256.908 -0.976014 37.9132 2.15119 -0.97066 -0.147122 -0.540099 -0.970505 -0.112456 -0.548366 -0.96928 0.0147757 -0.559583 -0.96971 -0.0737839 -0.554894 -4.7186 12.0337 -0.883251 -4.57722 22.7749 1.12588 -0.0 0.0 -0.0 0.89407 15.1198 3.20747 14.2661 -42.42 80.9976 0.770857 -20.8998 0.142175 25.9167 0.174406 -3.27795 2.50029 -2.43032 15.9727 -0.0 0.0 -0.0 7.78074 15.2614 -14.8071 -4.78653 6.42996 -68.2392 0.434375 12.1438 -0.0462058 41.2435 0.415516 5.14005 1.74005 6.46547 -9.03614 0.0 0.0 0.0 17.6102 15.2842 -20.9922 -30.3252 0.0314748 4.59975 35.6484 1.28655 -4.47293 -39.2734 0.0 0.0 -0.0 0.0 -0.0 3.47374 23.2836 -4.35955 2.59049 0.115312 0.380736 37.327 20.0961 5.10826 8.31362 -0.0 -0.0 0.0 0.0 0.0 
